<?xml version="1.0" standalone="no"?><!DOCTYPE svg PUBLIC "-//W3C//DTD SVG 1.1//EN" "http://www.w3.org/Graphics/SVG/1.1/DTD/svg11.dtd"><svg t="1538035405539" class="icon" style="" viewBox="0 0 1024 1024" version="1.1" xmlns="http://www.w3.org/2000/svg" p-id="5641" xmlns:xlink="http://www.w3.org/1999/xlink" width="512" height="512"><defs><style type="text/css"></style></defs><path d="M786.600637 160.412456c0.629333-1.487887 1.235131 0.103354 0 0-4.904707 9.840112 7.318686-9.80839 5.114484-3.069918-0.909719 0.453325-1.828648 0.898463-2.044566 2.046612 1.497097 1.466398 3.241834 0.784876 3.067872-2.046612 9.425673 7.969509 16.698311 18.09103 31.718399 20.464077 52.394301 45.780673 123.490545 81.630159 134.036739 162.68522-18.417465 11.149944-28.440749 34.162054-41.949414 52.182476-11.021008 14.69877-25.852808 25.63996-33.765011 41.950437-33.869389 30.210046-67.609841 66.017576-102.31834 97.20181-16.381086 14.719236-33.235962 29.345352-49.112558 43.99705-16.268522 15.013949-30.43108 31.454386-46.042639 47.065945-85.23015 85.23015-177.537486 162.407903-269.095761 241.469564-7.176446 1.350764-10.023284 7.030114-15.347547 10.232038-2.217505-0.565888 3.466961-3.956102 0-6.138814-2.12029-1.050935-6.827499 4.051269-10.231015 5.115508-16.981766-9.655917-25.292036-22.920012-40.927131-34.787294-1.199315 0.164752-0.86367 1.864464-1.023307 3.068895-39.679721-48.535413-96.846722-83.041298-141.198859-128.920208 0.36225 1.343601 1.802042 1.609661 2.046613 3.069919 1.14508 2.12643 1.103124 2.167363-1.023307 1.023306-14.340613-15.671934-32.305777-27.720342-45.019332-45.019333-36.281321-25.109887-64.925708-57.854663-92.085279-92.086302-4.556783 2.137687-5.714142-4.91187-5.116531-3.068895-1.279133-3.943822-0.186242-15.621792 2.046613-25.580608 14.516622-16.861016 29.058826-33.695427 34.788317-59.343573 28.42233-32.858362 55.144948-97.572246 123.803677-79.807651 40.377616 10.446933 67.496254 41.238216 98.225116 68.553329 31.652907 28.134781 64.24521 53.444213 86.96977 78.784344 13.022595-12.216229 28.573779-21.902846 36.83493-38.881542 27.725458-19.4991 49.318242-45.225017 72.644507-68.552306 19.123546-19.123546 38.47836-35.596729 56.275701-56.274677 5.265934-6.119371 8.918114-13.764492 14.32424-20.464078 6.739495-8.353248 14.903431-15.034415 21.487384-23.532972 18.609847-24.025183 35.891442-51.300386 55.250348-76.738755 25.650193-33.704636 59.653635-57.262168 89.017406-87.993077 2.160199-0.908696 3.02387-3.114944 6.137791-3.069919 5.26798-9.738805 14.204513-15.810081 21.487384-23.532972l1.023306-0.001024z m-12.278651 318.208319c7.826246-5.814426 14.85022-12.434194 20.46203-20.464077 4.634554-76.490092 1.732457-164.947749 21.487384-231.238549-6.701632-4.553713-11.7056-10.803044-19.440771-14.32424-13.815657 82.362846-12.856819 179.499164-22.508643 266.026866z m-9.209756-243.517199c-19.574824 75.92318-8.240685 182.752254-19.440771 267.050172 2.122337 4.41352 5.376451-2.695389 8.186449-5.115508 9.05012-7.798617 7.856945-4.411473 6.137791-14.325263-0.618077-3.572362-1.031493-8.252964-1.02126-9.208733 0.230244-22.447245 5.346775-45.257763 7.161097-70.598918 4.303003-60.059887 2.310625-129.017422 13.300934-179.056072-0.058328-0.624217-0.151449-1.211595-1.023306-1.023306-3.433192 5.091972-8.857738 8.194636-13.300934 12.277628z m46.043662 206.682269c7.559163-3.021823 14.267958-15.740496 23.533996-20.463054 0.316202-5.090948-6.997368-2.553149-7.163143-7.16212 7.27673-53.152571-0.687662-117.672026 15.347546-165.755138-5.170766-3.696182-8.196683-9.538237-14.32424-12.278651-12.014638 62.337767-15.424294 133.278469-17.394159 205.658963z m-83.899852-146.314367c-1.660826 58.976206 1.375324 142.089136 5.114485 201.566762 6.821359-72.724325-1.050935-171.530678 12.277628-242.493893-13.972223 6.947226-16.84362 21.459754-17.392113 40.927131z m116.641557 116.642581c6.223748-9.806343 16.856923-15.20326 23.533996-24.556279-1.558495-1.852184-7.016811 0.194428-6.139837-4.093225-3.080152-41.443901-10.671037-80.865749 7.163144-116.64258-4.187369-2.293229-8.945743-4.01443-12.279675-7.16212-10.977006 43.25106-8.500605 105.412818-12.277628 152.454204z m32.741706-33.765012c14.806217-14.524808 22.662139-35.998889 38.881542-49.112557-0.100284-5.354961-2.598174-15.670911-8.18645-15.347547-4.584412-16.561188-15.249309-27.040866-27.625174-35.811623-9.737782 24.639167-6.67605 71.079872-3.069918 100.271727z m-178.03379-34.788317c-2.778276 63.22395 9.91686 135.575792 15.347547 190.311417 9.331529-7.822153 1.446955-28.263717 1.023306-40.927132-0.713244-21.416775 0.99977-42.886763-1.023306-65.48341-4.107551-45.923936-5.302773-95.157243 0-143.244448-0.058328-0.624217-0.151449-1.211595-1.023306-1.023306-14.244422 11.665691-13.346983 38.160111-14.324241 60.366879z m-15.347546 218.959897c1.870604-6.458085 14.372336-9.520841 16.370853-17.393135 2.088568-8.231475-3.611248-21.85475-4.093225-25.580609-2.034333-15.747659-1.650593-35.576263-5.114485-56.273654-7.324826-43.766806-9.969049-96.349395-7.163143-138.128941-7.073092 14.452153-17.769712 23.477714-18.417465 41.950438-2.188852 62.612013 10.752902 138.015354 16.370853 197.473537 4.740978 0.277316 11.904121-10.30981 2.046612-2.047636z m-52.18043-162.685219c7.488555 18.662035 9.329483 41.834804 9.20771 64.461127-0.234337 43.234687 6.081509 87.590917 10.231015 127.896902 4.586458-3.751441 14.617929-8.262174 16.370853-16.370853 1.092891-5.054109-1.358951-11.028171-2.046613-17.394158-5.108345-47.426149-15.587-113.874537-16.370852-162.68522-0.107447-6.752798 2.76395-18.504446-1.023307-19.440771-5.217838 8.082072-11.717879 14.883989-16.368806 23.532973z m-23.533996 31.719422c-0.721431 10.759041 3.837398 28.040636 7.163144 42.97272 3.313465 14.881942 7.968485 30.619368 9.207709 45.019333 3.082198 35.827997-2.969635 67.200518 1.023306 100.271728 7.362688-3.210112 11.244089-9.901511 16.370853-15.347546-5.2864-0.409322-5.602601-7.40669-6.139837-10.232039-3.735068-19.644409-5.324262-44.827975-8.184403-69.575612-3.591805-31.068599-1.373277-77.917604-7.163144-110.502743-0.058328-0.624217-0.151449-1.211595-1.023306-1.023306-3.865028 5.584182-10.664897 9.627265-11.254322 18.417465z m12.277628 194.403618c-3.695159-0.398066-6.827499-1.358951-9.207709-3.069918-3.733021-20.063965-1.023306-40.732703-1.023306-61.390186 0-42.195008-10.31288-80.484056-16.370853-117.665886-15.08558 2.314719-11.742439 29.496801-11.254321 45.019332 1.526773 48.764634 16.654308 103.286388 16.370852 155.5231 8.030907-3.820002 12.117992-8.696056 21.485337-18.416442zM213.620797 453.04119c4.803399 1.859347-2.663666-0.13917-5.116531 0-5.447059 39.099507-10.042727 80.486102-10.231015 119.711476 6.855128-38.164205 16.839527-73.200162 27.625174-107.432825 6.396687-0.599657 10.6782 0.917906 14.32424 3.068895-14.871709 58.796104-32.091906 115.244744-38.880519 182.125991 7.531534 4.564969 16.97972 20.915355 23.532973 19.440771 7.525394-28.638247 3.533476-61.675688 7.16212-92.085278 4.212952-35.299971 16.291035-69.924559 16.370852-107.433848-10.891048-5.825682-24.586978-14.290471-34.787294-17.395182z m-43.99705 50.134841c-4.944616 30.535457-14.421454 74.069973-11.254321 107.433848 3.844561 3.517103 9.025561 11.157107 14.32424 16.370852 4.018523 3.954055 13.010315 14.309914 15.347546 7.16212-1.478677-1.610684-11.588943-3.231601-13.300934-9.207709-1.246387-4.349051 2.217505-10.177803 3.068895-15.347546 6.758937-41.026392 6.354731-116.103298 13.300934-153.477511-20.213367 6.275937-17.73799 23.921829-21.48636 47.065946z m413.364539 134.036739c-2.536776-57.6807-19.464307-112.041796-16.370853-165.755138-0.058328-0.623193-0.153496-1.211595-1.023306-1.022283-4.571109 4.308119-11.380188 8.843412-13.30298 15.347546-1.851161 6.262634 0.23536 11.429307 1.023306 18.416442 5.450129 48.353264 22.223141 114.458845 22.51069 164.731832 11.828396-3.621481 7.718799-19.054985 7.163143-31.718399z m-337.64909-1.023306c7.04751-50.956555 39.154765-82.229816 34.787294-141.197836-5.504364-4.726651-12.20702-8.257058-18.416441-12.278651-0.310062 55.623855-18.803251 98.521874-16.370853 153.476487z m-116.64258-101.295034c-6.008854 9.599635-11.764951 20.627806-20.463054 27.626197 8.847505 14.003945 21.834284 23.868617 33.765011 34.788318 1.659803-36.420491 5.988388-69.644173 10.231015-99.248422-8.464789 11.521404-15.59621 24.156166-23.532972 36.833907z m402.109194-5.114485c0.727571 7.757684-0.305969 16.788361 0 23.53195 2.15099 47.364751 11.82021 103.753015 22.508643 139.152246 14.334473-2.957355 6.353708-23.029506 5.116531-35.8106-2.148943-22.196535-1.197268-44.211944-6.139837-66.506717-6.547113-29.537733-15.431457-59.211567-15.347547-91.062995-0.058328-0.624217-0.151449-1.211595-1.023306-1.023306-10.54517 6.816243-6.42534 17.768689-5.114484 31.719422z m202.588021-13.301957c1.019213-3.414773 5.324262-3.542686 6.139837-7.16212-3.137457-1.297552-5.384637-3.483334-8.186449-5.116531 0.418532 4.358261 0.473791 9.077749 2.046612 12.278651z m-435.873182-2.046612c-0.313132-2.359744 2.956332-1.13587 3.069919-3.068896-2.628874-0.100284-1.463328-3.993964-4.093225-4.093225 0.476861 4.028757-2.14485 5.313006 1.023306 7.162121z m-20.463054 167.80175c16.777105-44.955888 27.364231-104.965633 50.135864-147.337673-5.994528-4.577249-10.426467-10.719132-17.394159-14.32424-10.479679 54.321186-22.353101 107.249653-32.741705 161.661913z m228.167606-133.013433c4.191462 52.189639 20.671809 110.427018 29.673833 157.568688 2.730181 1.854231 12.839423-7.079232 9.20771-8.185426-2.537799 0.150426-4.965082 0.191358-5.116531-2.046612-16.559141-55.573713-23.515576-108.452038-25.578562-174.963871-12.050454 5.962805-9.064446 16.696264-8.18645 27.627221z m-29.671786 7.16212c-5.78782 65.101717 30.316469 111.294782 40.928154 169.84734 9.435906-4.701069 3.335978-17.076934 2.046613-23.532973-10.159384-50.870598-28.172643-97.573269-29.673833-156.546406-0.058328-0.624217-0.151449-1.211595-1.023306-1.022282-4.353145 3.489474-7.985882 7.700379-12.277628 11.254321z m-138.128941-10.232039c-11.468193 26.198685-17.277502 55.101969-28.64848 93.109608-3.548826 11.860119-9.448186 25.379017-14.32424 39.902802-2.733251 8.141424-13.416568 34.984792-12.278651 41.950438 0.909719 5.562692 15.945157 16.498766 17.394158 15.347546 16.479323-59.940161 32.423457-125.798101 46.042639-185.195909-3.396353-1.034563-3.204995-5.66093-8.185426-5.114485z m-25.579585 203.613375c12.010545 13.087063 28.869514 25.977651 41.950438 37.857212 4.15053 3.76986 7.708566 11.849886 13.300934 10.232039-1.928932-48.464805-4.626367-94.031607 4.093225-138.128941-16.941857 31.488155-19.202341 77.659731-34.788318 110.502744-3.690042-3.812839-9.496282-5.509481-11.254322-11.254322 15.022135-56.638975 31.256888-117.39471 50.135864-166.777421 1.657756-1.538029 7.54893-1.538029 9.207709 0-6.339382-14.119579-15.70775-18.99461-25.578561-29.67281-13.144368 64.958454-30.337959 125.866662-47.066969 187.241499z m146.314367-178.03379c-11.812023 5.392824-5.496178 14.713097-2.046612 27.625175 12.891611 48.229444 23.028483 103.519702 31.718399 149.384285 4.149507-0.983397 11.349489-7.738241 15.349593-12.278651-9.745968-57.483202-42.459021-97.077989-45.02138-164.730809z m-177.00946 6.139838c2.99931 0.039909-0.611937-6.077416 0-1.023307-14.750959 34.70236-25.808806 73.098855-31.718398 116.641558 2.074242 3.042289 5.133927 5.098111 9.208732 6.138813 7.218402-38.991036 15.043624-82.769099 22.509666-121.757064z m151.430898 15.347546c-0.373507 30.269397 9.631358 58.945507 15.34857 87.992053 5.862521 29.791513 3.311419 60.07012 12.277628 89.016383 3.15997-3.378957 11.158131-4.988618 15.347546-11.254321-11.55415-57.215096-25.548886-110.092397-37.857213-168.824034-0.058328-0.624217-0.152473-1.211595-1.023306-1.023306a9.217942 9.217942 0 0 1-4.093225 4.093225z m-46.043662 11.254322c2.540869-1.331321 4.245697 3.00238 5.116531 0-0.74599-0.899486-1.109264-4.825912-4.093225-6.139838 0.73985 3.128247-1.045819 3.729951-1.023306 6.139838z m23.532973 25.579585c10.058077 49.53109 20.726044 115.749234 29.671786 161.661913 3.888564-3.956102 9.265014-6.424316 12.279674-11.255345-2.929726 0.200568-5.584182 0.12689-5.116531-3.069919-8.688893-25.826202-8.544607-55.41817-13.301957-83.899851-4.862751-29.119201-15.300474-57.268308-16.370852-87.993077-9.477862 4.774747-10.509355 8.066723-7.16212 24.556279z m21.487383 167.80175c-1.76725-1.642406-6.326079-0.49528-7.16212-3.069919-8.17724-62.244646-24.131607-110.751407-32.740682-172.917258-1.992377 21.542642-7.148817 45.37135-7.163143 65.483411 1.432629-1.695618 9.822716-1.695618 11.255345 0 5.100158 41.965787 10.854209 83.277682 15.347546 125.850289 6.958482-4.804423 11.18576-6.631024 20.463054-15.346523z m-49.112558 16.370853c5.805216 3.923356 13.851473 19.258623 19.439748 8.185426-2.929726 0.200568-5.584182 0.12689-5.115507-3.069919-4.018523-33.287127-10.574846-77.354785-15.347547-113.572661-0.607844 32.942273-1.836835 76.939323 1.023306 108.457154z" p-id="5642" fill="#FFFFFF"></path></svg>