<svg xmlns="http://www.w3.org/2000/svg" xmlns:xlink="http://www.w3.org/1999/xlink" viewBox="0 0 142.664 51.081">
  <defs>
    <style>
      .cls-1 {
        fill: #5a5e68;
        stroke: #4b4f56;
        stroke-width: 2px;
      }

      .cls-2 {
        fill: none;
      }

      .cls-3, .cls-4 {
        fill: #05a650;
      }

      .cls-4 {
        font-size: 10px;
        font-family: PingFangSC-Regular, PingFang SC;
      }

      .cls-5 {
        filter: url(#路径_645);
      }
    </style>
    <filter id="路径_645" x="0" y="0" width="142.664" height="51.081" filterUnits="userSpaceOnUse">
      <feOffset dy="3" input="SourceAlpha"/>
      <feGaussianBlur stdDeviation="3" result="blur"/>
      <feFlood flood-opacity="0.161"/>
      <feComposite operator="in" in2="blur"/>
      <feComposite in="SourceGraphic"/>
    </filter>
  </defs>
  <g id="组_278" data-name="组 278" transform="translate(-336.617 -505.459)">
    <g id="组_218" data-name="组 218" transform="translate(246 445.04)">
      <g id="出口标志灯-01" transform="translate(90.617 66.513)">
        <g class="cls-5" transform="matrix(1, 0, 0, 1, 0, -6.09)">
          <path id="路径_645-2" data-name="路径 645" class="cls-1" d="M20.98,254.982H143.644v31.081H20.98Z" transform="translate(-10.98 -247.98)"/>
        </g>
        <path id="路径_646" data-name="路径 646" class="cls-2" d="M1.221,231.251H58.232v30.888H1.221ZM0,263.565H59.6V229.718H0Z" transform="translate(4.731 -229.718)"/>
        <path id="路径_647" data-name="路径 647" class="cls-3" d="M668.14,392.361a1.057,1.057,0,1,1-1.057,1.057,1.057,1.057,0,0,1,1.057-1.057" transform="translate(-644.714 -381.56)"/>
        <path id="路径_648" data-name="路径 648" class="cls-3" d="M580.646,336.408v9.668s1.586.158,1.586,1.511c0,1.443-1.586,1.586-1.586,1.586v1.662l1.662,1.964h1.586v-18.5H565.465v18.5h5.891l-1.737-1.964v-6.949h2.266a.7.7,0,0,1,.529-.227c.354-.376.66-.911.755-.906a2.5,2.5,0,0,1,.378,1.133,1.606,1.606,0,0,1-.076.755s-2.349,4.186-2.492,4.456a1.034,1.034,0,0,0,.529,1.359c.6.335,1.208-.453,1.208-.453s2.36-4.417,2.417-4.456a.313.313,0,0,1,.227,0c.039.017.237,2.308.3,2.417a2.929,2.929,0,0,0,.3.378.873.873,0,0,0,.453.227H580.8a1.05,1.05,0,0,0,.831-.982,1,1,0,0,0-.831-.906c-.185-.005-2.993,0-3.172,0a.267.267,0,0,0-.227-.227c-.016-.092-.064-1.87-.151-2.115s-.961-2.352-.906-2.417.172-.07.3-.076a1.508,1.508,0,0,1,.529.227c.071.049.717,1.073.831,1.209a3.939,3.939,0,0,0,.6.6,1.059,1.059,0,0,0,.831,0,1.14,1.14,0,0,0,.529-.755,1.287,1.287,0,0,0-.075-.529c-.1-.207-1.38-2.189-1.511-2.341a.984.984,0,0,0-.453-.3h-4.456a.969.969,0,0,1-.529.227c-.087.065-.561.583-1.057,1.133a3.08,3.08,0,0,1-1.057.68h-1.208v-5.589Z" transform="translate(-548.384 -326.513)"/>
        <path id="路径_649" data-name="路径 649" class="cls-3" d="M694.707,655.377s-1.331-1.584-1.435-1.662a.723.723,0,0,0-.453-.151,3.411,3.411,0,0,0-.755.378.977.977,0,0,0-.3.6,1.32,1.32,0,0,0,.076.529,3.154,3.154,0,0,0,.378.378h2.492v-.076Z" transform="translate(-668.109 -629.168)"/>
        <text id="安全出口" class="cls-4" transform="translate(64.553 19.79)"><tspan x="0" y="0">安全出口</tspan></text>
      </g>
    </g>
  </g>
</svg>
