<svg xmlns="http://www.w3.org/2000/svg" viewBox="0 0 51.57 51.579">
  <defs>
    <style>
      .cls-1 {
        fill: #9fc8e2;
      }

      .cls-2 {
        fill: #5a5e69;
      }
    </style>
  </defs>
  <g id="fingerprint" transform="translate(-327.999 -203)">
    <g id="指纹_2_" data-name="指纹 (2)" transform="translate(328 203)">
      <path id="路径_590" data-name="路径 590" class="cls-1" d="M150.451,140.653Zm0,0h-1.7a.514.514,0,0,0-.516.516v4.548a2.771,2.771,0,0,1-2.423,2.423h-4.629a.514.514,0,0,0-.516.516v1.7a.514.514,0,0,0,.516.516h4.629a5.168,5.168,0,0,0,5.157-5.157v-4.548a.522.522,0,0,0-.518-.514ZM109.272,99.3h-4.716a5.168,5.168,0,0,0-5.157,5.157v4.8a.514.514,0,0,0,.516.516h1.7a.514.514,0,0,0,.516-.516v-4.8a2.771,2.771,0,0,1,2.423-2.423h4.716a.514.514,0,0,0,.516-.516v-1.7a.514.514,0,0,0-.514-.518Zm36.538,0h-4.629a.514.514,0,0,0-.516.516v1.7a.514.514,0,0,0,.516.516h4.629a2.771,2.771,0,0,1,2.423,2.423v4.8a.514.514,0,0,0,.516.516h1.7a.514.514,0,0,0,.516-.516v-4.8A5.167,5.167,0,0,0,145.81,99.3Zm-36.538,48.839h-4.716a2.771,2.771,0,0,1-2.423-2.423v-4.548a.514.514,0,0,0-.516-.516h-1.7a.514.514,0,0,0-.516.516v4.548a5.177,5.177,0,0,0,5.157,5.163h4.716a.514.514,0,0,0,.516-.516v-1.709a.514.514,0,0,0-.518-.515Zm6.312-13.606c5.89-1.435,14.8-3.616,15.215-16.4v-.174a5.331,5.331,0,0,0-1.528-3.74,5.7,5.7,0,0,0-4.088-1.721h-.006a5.58,5.58,0,0,0-4.088,1.789,6.864,6.864,0,0,0-1.472,3.566c-.814,4.268-3.572,6.374-8.437,6.43a1.286,1.286,0,0,0-1.274,1.286v.019a1.277,1.277,0,0,0,1.28,1.274h.025c6.02-.068,9.9-3.094,10.935-8.53a4.584,4.584,0,0,1,.833-2.286,2.992,2.992,0,0,1,2.2-.963h.037a3.083,3.083,0,0,1,2.206.932,2.768,2.768,0,0,1,.8,1.951v.087c-.348,10.817-7.5,12.562-13.252,13.973-1.093.267-2.131.522-3.019.826a1.294,1.294,0,0,0-.876,1.224,1.338,1.338,0,0,0,.068.422,1.286,1.286,0,0,0,1.218.864,1.223,1.223,0,0,0,.429-.081c.775-.251,1.757-.493,2.795-.748Z" transform="translate(-99.4 -99.3)"/>
      <path id="路径_591" data-name="路径 591" class="cls-1" d="M304.034,263.4c-2.293-.7-4.349-1.615-4.312-5.256.006-.808.056-1.342.106-1.914.081-.826.13-1.783.13-2.746,0-.217,0-.429-.006-.646A9.976,9.976,0,0,0,290.08,243c-4.9,0-8.735,3.336-9.773,8.5-.615,3.075-2.224,3.175-3.69,3.032a.833.833,0,0,0-.13-.006,1.287,1.287,0,0,0-1.28,1.149.96.96,0,0,0-.006.137,1.3,1.3,0,0,0,1.149,1.286c4.424.441,5.971-2.522,6.486-5.088.8-3.97,3.572-6.43,7.244-6.43a7.393,7.393,0,0,1,7.294,7.325c.006.174.006.379.006.584a26.1,26.1,0,0,1-.13,2.622c-.044.485-.1,1.1-.106,2.007-.05,5.871,4.293,7.182,6.145,7.741a1.236,1.236,0,0,0,.46.087,1.291,1.291,0,0,0,1.292-1.292,1.315,1.315,0,0,0-1.007-1.259Z" transform="translate(-264.278 -234.072)"/>
      <path id="路径_592" data-name="路径 592" class="cls-1" d="M315.186,194.972l-.006-.006c-.112-.075-.628-.491-.5-1.64.18-1.659.273-4.38.273-4.5v-.037a14.182,14.182,0,0,0-27.4-5.15,18.271,18.271,0,0,0-.609,2.063c-.093.367-.193.777-.255.932a1.244,1.244,0,0,0-.087.466,1.3,1.3,0,0,0,.808,1.2,1.366,1.366,0,0,0,.478.093,1.3,1.3,0,0,0,1.2-.808,10.734,10.734,0,0,0,.36-1.255,15.184,15.184,0,0,1,.509-1.752,11.6,11.6,0,0,1,22.41,4.187c-.012.261-.1,2.8-.261,4.287-.3,2.839,1.522,4.212,2.4,4.4a1.266,1.266,0,0,0,.273.031,1.29,1.29,0,0,0,.4-2.51Z" transform="translate(-274.97 -169.922)"/>
      <path id="路径_593" data-name="路径 593" class="cls-1" d="M276.792,393.2a1.256,1.256,0,0,0,.267-.031h-.006c.255-.056.522-.106.789-.162,5.008-1.013,13.395-2.7,13.8-12.861a1.1,1.1,0,0,0,.006-.149,1.292,1.292,0,1,0-2.585,0v.05c-.323,8.133-6.915,9.462-11.73,10.431-.28.056-.547.112-.808.168a1.3,1.3,0,0,0-1.025,1.267,1.864,1.864,0,0,0,.025.267,1.3,1.3,0,0,0,1.267,1.02Zm26.7,1.665h-.006a20.809,20.809,0,0,1-3.809-1.3,8.994,8.994,0,0,1-3.032-2.274,1.3,1.3,0,0,0-2.212.913,1.316,1.316,0,0,0,.261.783,11.615,11.615,0,0,0,3.97,2.957,23.87,23.87,0,0,0,4.268,1.454,1.3,1.3,0,0,0,.559-2.529Zm-1.3,4.119a19.637,19.637,0,0,1-5.517-2.168,8.867,8.867,0,0,0-4.156-1.429,16.8,16.8,0,0,0-4.6,1.093,81.921,81.921,0,0,1-9.338,2.5,1.3,1.3,0,0,0-1.031,1.267,1.86,1.86,0,0,0,.025.267,1.292,1.292,0,0,0,1.261,1.025,1.852,1.852,0,0,0,.267-.025,86.3,86.3,0,0,0,9.6-2.566,16.339,16.339,0,0,1,3.815-.969,7.165,7.165,0,0,1,2.945,1.131,22.136,22.136,0,0,0,6.188,2.411,1.277,1.277,0,0,0,.273.025,1.3,1.3,0,0,0,.267-2.56Z" transform="translate(-264.559 -361.341)"/>
      <path id="路径_594" data-name="路径 594" class="cls-1" d="M366.569,722.052h-.006a20.146,20.146,0,0,1-3.119-1.274,11.884,11.884,0,0,0-4.5-1.479,25.618,25.618,0,0,0-5.355,1.255c-1.938.559-4.132,1.2-5.716,1.472a1.293,1.293,0,1,0,.441,2.541,59.64,59.64,0,0,0,5.989-1.535,30.556,30.556,0,0,1,4.635-1.149,10.914,10.914,0,0,1,3.411,1.236,22.657,22.657,0,0,0,3.548,1.429,1.414,1.414,0,0,0,.336.043,1.294,1.294,0,0,0,.342-2.541Z" transform="translate(-331.336 -680.78)"/>
      <path id="路径_595" data-name="路径 595" class="cls-1" d="M415.284,792.235l-.006-.006c-.311-.112-.634-.255-.975-.4a9.372,9.372,0,0,0-3.927-1.025,17.725,17.725,0,0,0-3.411.634,35.21,35.21,0,0,1-3.535.727,1.293,1.293,0,1,0,.062,2.585,1.084,1.084,0,0,0,.249-.025,38.764,38.764,0,0,0,3.827-.777,19.9,19.9,0,0,1,2.808-.565,7.04,7.04,0,0,1,2.889.808c.367.162.739.323,1.125.466a1.276,1.276,0,0,0,.447.081,1.292,1.292,0,0,0,.447-2.5Z" transform="translate(-383.387 -747.838)"/>
    </g>
    <path id="路径_596" data-name="路径 596" class="cls-2" d="M150.451,140.653m0,0h-1.7a.514.514,0,0,0-.516.516v4.548a2.771,2.771,0,0,1-2.423,2.423h-4.629a.514.514,0,0,0-.516.516v1.7a.514.514,0,0,0,.516.516h4.629a5.168,5.168,0,0,0,5.157-5.157v-4.548a.522.522,0,0,0-.518-.514ZM109.272,99.3h-4.716a5.168,5.168,0,0,0-5.157,5.157v4.8a.514.514,0,0,0,.516.516h1.7a.514.514,0,0,0,.516-.516v-4.8a2.771,2.771,0,0,1,2.423-2.423h4.716a.514.514,0,0,0,.516-.516v-1.7a.514.514,0,0,0-.514-.518Zm36.538,0h-4.629a.514.514,0,0,0-.516.516v1.7a.514.514,0,0,0,.516.516h4.629a2.771,2.771,0,0,1,2.423,2.423v4.8a.514.514,0,0,0,.516.516h1.7a.514.514,0,0,0,.516-.516v-4.8A5.167,5.167,0,0,0,145.81,99.3Zm-36.538,48.839h-4.716a2.771,2.771,0,0,1-2.423-2.423v-4.548a.514.514,0,0,0-.516-.516h-1.7a.514.514,0,0,0-.516.516v4.548a5.177,5.177,0,0,0,5.157,5.163h4.716a.514.514,0,0,0,.516-.516v-1.709a.514.514,0,0,0-.518-.515Z" transform="translate(228.6 103.7)"/>
  </g>
</svg>
