<svg xmlns="http://www.w3.org/2000/svg" viewBox="0 0 123.513 130.209">
  <defs>
    <style>
      .cls-1 {
        fill: #c5dd83;
      }

      .cls-2 {
        fill: #ffd7b7;
      }

      .cls-3 {
        fill: #004e78;
      }

      .cls-4 {
        fill: #fff;
      }

      .cls-5 {
        fill: #5896cc;
      }

      .cls-6 {
        fill: #deb99b;
      }

      .cls-7 {
        fill: #fff2e8;
      }

      .cls-8 {
        fill: #fc6b4f;
      }

      .cls-9 {
        fill: #7838f2;
      }

      .cls-10 {
        fill: #5698f3;
      }

      .cls-11 {
        fill: #20e9f4;
      }

      .cls-12 {
        fill: #00fd60;
      }

      .cls-13 {
        fill: #abfb5b;
      }

      .cls-14 {
        fill: #f0e254;
      }

      .cls-15 {
        fill: #f6b351;
      }
    </style>
  </defs>
  <g id="组_395" data-name="组 395" transform="translate(-77 -111.591)">
    <g id="朋友圈素材" transform="translate(-23.7 38.891)">
      <path id="路径_874" data-name="路径 874" class="cls-1" d="M162.457,180.057m-61.757,0A61.757,61.757,0,1,0,162.457,118.3,61.757,61.757,0,0,0,100.7,180.057Z" transform="translate(0 -38.905)"/>
      <path id="路径_875" data-name="路径 875" class="cls-2" d="M394.563,361.659a4.572,4.572,0,0,1-.719,6.372L358.5,396.884a4.535,4.535,0,0,1-5.653-7.092l35.327-28.852A4.55,4.55,0,0,1,394.563,361.659Z" transform="translate(-213.679 -245.072)"/>
      <path id="路径_876" data-name="路径 876" class="cls-2" d="M220.6,462.429l23.963,7.415,5.829-18.824,19.9-22.994L234.666,417Z" transform="translate(-102.295 -293.746)"/>
      <path id="路径_877" data-name="路径 877" class="cls-2" d="M380.963,274.68a4.572,4.572,0,0,1-.719,6.372L344.9,309.9a4.535,4.535,0,1,1-5.653-7.092l35.327-28.852A4.536,4.536,0,0,1,380.963,274.68Zm6.9-31.921a4.572,4.572,0,0,1-.719,6.372L353.094,276.9a4.535,4.535,0,1,1-5.653-7.092l34.035-27.766A4.548,4.548,0,0,1,387.864,242.759Z" transform="translate(-202.076 -143.63)"/>
      <path id="路径_878" data-name="路径 878" class="cls-3" d="M348.9,72.7h25.284a8.92,8.92,0,0,1,8.9,8.9v67.131a8.93,8.93,0,0,1-8.9,8.9H348.9a8.93,8.93,0,0,1-8.9-8.9V81.613A8.914,8.914,0,0,1,348.9,72.7Z" transform="translate(-204.163)"/>
      <path id="路径_879" data-name="路径 879" class="cls-4" d="M365.832,121.3H401.1a.116.116,0,0,1,.117.117v69.73a.116.116,0,0,1-.117.117H365.832a.129.129,0,0,1-.132-.117v-69.73A.12.12,0,0,1,365.832,121.3Z" transform="translate(-226.09 -41.464)"/>
      <path id="路径_880" data-name="路径 880" class="cls-5" d="M438.446,87.1h13.068a.646.646,0,0,1,0,1.292H438.446a.652.652,0,0,1-.646-.646A.642.642,0,0,1,438.446,87.1Zm6.534,76.616a2.173,2.173,0,1,1-2.173,2.173A2.168,2.168,0,0,1,444.98,163.716Z" transform="translate(-287.604 -12.286)"/>
      <path id="路径_881" data-name="路径 881" class="cls-2" d="M570.316,355.989a4.557,4.557,0,0,1-.719,6.372l-6.622,5.286a4.535,4.535,0,0,1-5.653-7.092l6.622-5.286A4.531,4.531,0,0,1,570.316,355.989Zm2.467-14.83a4.557,4.557,0,0,1-.719,6.372l-5.638,4.508a4.535,4.535,0,1,1-5.653-7.092l5.638-4.508A4.532,4.532,0,0,1,572.783,341.159Z" transform="translate(-388.126 -227.582)"/>
      <path id="路径_882" data-name="路径 882" class="cls-4" d="M177.5,690.34a62.006,62.006,0,0,0,27.119,21.452l8.56-27.648-30.8-9.544Z" transform="translate(-65.523 -513.523)"/>
      <path id="路径_883" data-name="路径 883" class="cls-2" d="M256.421,348.093l3.069.954.837-3.891,6.754-31.231c1.41-6.49-2.628-8.692-6.637-9.926l-7.973,36.854A6.246,6.246,0,0,0,256.421,348.093Z" transform="translate(-129.365 -197.338)"/>
      <path id="路径_884" data-name="路径 884" class="cls-2" d="M637.562,787.2,611.5,791.884l6.96,17.047a61.6,61.6,0,0,0,22.259-13.611Z" transform="translate(-435.799 -609.59)"/>
      <path id="路径_885" data-name="路径 885" class="cls-6" d="M452,657.251l12.7,18.031c1.63,2.32,10.146,9.5,12.583,8.061s-1.013-9.382-2.7-11.658l-9.735-12.216C459.268,652.479,454.467,655.4,452,657.251Z" transform="translate(-299.719 -496.835)"/>
      <path id="路径_886" data-name="路径 886" class="cls-2" d="M420.692,408.075l10.234,23.375c.822-4.229,7.268-4.889,9.6-.881.235-4.449,6.27-5.565,9.089-2.349.9-4.067,7.371-4.464,9.294-.132l8.766,19.822c2.467,5.565,2.614,14.052,1.5,17.943-3.318,11.526-18.559,11.893-23.919,8.355-4.185-2.76-7.474-4.273-8.824-7.224L411.324,412.1C408.138,405.124,418.24,402.3,420.692,408.075Z" transform="translate(-264.49 -283.485)"/>
      <path id="路径_887" data-name="路径 887" class="cls-6" d="M570.469,565.747s-1.659-3.964-3.157-7.474a3.293,3.293,0,0,0-.206.675,6.422,6.422,0,0,0-.808-.749C568.149,561.621,570.469,565.747,570.469,565.747Zm-22.039-3.685a3.724,3.724,0,0,1,.382-1.028c1.659,3.95,4.331,10.748,4.331,10.748s-3.421-6.7-4.743-9.6C548.429,562.223,548.444,562.164,548.429,562.062Zm8.34-2.217a5.167,5.167,0,0,1,1.248,1.439,5,5,0,0,1,.117-.837c1.689,3.876,3.744,8.692,3.744,8.692S558.678,563.442,556.769,559.844Z" transform="translate(-381.964 -414.214)"/>
      <path id="路径_888" data-name="路径 888" class="cls-7" d="M299.8,304.385c-.455-.176-.925-.338-1.395-.485l-1.6,7.43C299.458,311.286,299.693,307.1,299.8,304.385Zm40.863,11,1.542-1.189a5.354,5.354,0,0,1,4.258,5.477L345,320.829C341.055,324,337.325,317.878,340.658,315.382Zm-3.348,15.505,1.542-1.189a5.354,5.354,0,0,1,4.258,5.477l-1.454,1.16C337.707,339.506,333.977,333.383,337.31,330.887Zm-15.079-8.81.866,2.012c-1.586,2.849-4.008,3.788-7.136,3.142l-.866-1.909C312.746,320.139,320.425,317.761,322.231,322.078Z" transform="translate(-167.307 -197.253)"/>
    </g>
    <g id="朋友圈_1_" data-name="朋友圈 (1)" transform="translate(110 120.41)">
      <path id="路径_889" data-name="路径 889" class="cls-4" d="M22.795,22.795m-9.795,0A9.795,9.795,0,1,0,22.795,13,9.795,9.795,0,0,0,13,22.795Z"/>
      <path id="路径_890" data-name="路径 890" class="cls-8" d="M342.7,45a8.948,8.948,0,0,0-1.032.061,9.088,9.088,0,0,0-2.371.6s6.161,6.1,6.326,6.324v-6.5c-.185-.063-.371-.118-.561-.171A9.08,9.08,0,0,0,342.7,45Z" transform="translate(-319.895 -31.372)"/>
      <path id="路径_891" data-name="路径 891" class="cls-9" d="M696.976,83.139A9.227,9.227,0,0,0,694.1,81.2s.045,8.668,0,8.945l4.6-4.6c-.086-.175-.179-.347-.277-.516A9.073,9.073,0,0,0,696.976,83.139Z" transform="translate(-667.731 -66.861)"/>
      <path id="路径_892" data-name="路径 892" class="cls-10" d="M627.624,339.4s-6.1,6.161-6.324,6.326h6.5c.063-.183.12-.371.171-.559a9.1,9.1,0,0,0,.314-2.361,9.2,9.2,0,0,0-.663-3.406Z" transform="translate(-596.36 -319.993)"/>
      <path id="路径_893" data-name="路径 893" class="cls-11" d="M482.7,696.5l4.6,4.6c.175-.086.345-.179.516-.277a9.068,9.068,0,0,0,1.892-1.449,9.447,9.447,0,0,0,.687-.773,9.123,9.123,0,0,0,1.25-2.1S482.979,696.547,482.7,696.5Z" transform="translate(-460.48 -670.084)"/>
      <path id="路径_894" data-name="路径 894" class="cls-12" d="M362.5,623v6.5q.277.094.559.171a9.1,9.1,0,0,0,2.361.314,8.9,8.9,0,0,0,1.031-.061,9.087,9.087,0,0,0,2.371-.6S362.663,623.228,362.5,623Z" transform="translate(-342.64 -598.026)"/>
      <path id="路径_895" data-name="路径 895" class="cls-13" d="M99.8,484.8l-4.6,4.6c.086.177.181.349.277.516a9.1,9.1,0,0,0,4.324,3.83S99.754,485.077,99.8,484.8Z" transform="translate(-80.587 -462.539)"/>
      <path id="路径_896" data-name="路径 896" class="cls-14" d="M47.014,363.159a9.1,9.1,0,0,0-.314,2.361,8.528,8.528,0,0,0,.063,1.032,9.01,9.01,0,0,0,.6,2.371s6.1-6.161,6.324-6.324H47.185C47.12,362.783,47.065,362.971,47.014,363.159Z" transform="translate(-33.039 -342.738)"/>
      <path id="路径_897" data-name="路径 897" class="cls-15" d="M87.032,95.277a9.022,9.022,0,0,0-1.892,1.447,8.725,8.725,0,0,0-.687.773A9.13,9.13,0,0,0,83.2,99.6s8.67-.045,8.947,0l-4.6-4.6C87.373,95.086,87.2,95.179,87.032,95.277Z" transform="translate(-68.822 -80.39)"/>
    </g>
  </g>
</svg>
