<svg xmlns="http://www.w3.org/2000/svg" viewBox="0 0 24.944 17">
  <defs>
    <style>
      .cls-1 {
        fill: #fff;
      }
    </style>
  </defs>
  <path id="朋友圈" class="cls-1" d="M30.154,24.825v-.009H30.14l.014.009Zm-3.218-3.2q-.717,0-1.41.057a17.32,17.32,0,0,0-3.239.558S30.7,27.9,30.927,28.106V22.075c-.251-.058-.507-.11-.765-.159a17.967,17.967,0,0,0-3.225-.291Zm3.218,3.2-.014-.009h.014v.009Zm4.517,3.065.008-.007-.008-.006v.013Zm1.056-3.807a11.981,11.981,0,0,0-1.056-.637,14.534,14.534,0,0,0-2.87-1.16s.062,8.037,0,8.294l6.281-4.265c-.118-.161-.244-.321-.378-.478a9.8,9.8,0,0,0-1.977-1.754ZM34.671,27.89v-.013l.008.006-.008.007Zm.021,4.435v-.009l-.013.009Zm3.792-5.341s-8.325,5.714-8.637,5.866h8.882c.085-.17.162-.344.233-.52a5.905,5.905,0,0,0,.429-2.19,5.579,5.579,0,0,0-.085-.958,6.324,6.324,0,0,0-.822-2.2Zm-3.792,5.341h-.013l.013-.009v.009Zm-4.577,3.108H30.1l.009.006.01-.006Zm-3.982-1.949,6.281,4.265c.239-.08.473-.165.706-.257A13.041,13.041,0,0,0,35.7,36.15a10.737,10.737,0,0,0,.937-.717,8.553,8.553,0,0,0,1.708-1.949s-11.836.042-12.215,0Zm3.982,1.949-.01.006-.009-.006Zm-6.432,0H23.7l-.013-.009v.009Zm-.773-3.29v6.031c.252.058.508.111.765.158a17.9,17.9,0,0,0,3.225.291c.476,0,.947-.02,1.408-.056a17.312,17.312,0,0,0,3.239-.559s-8.413-5.654-8.637-5.865Zm.773,3.29v-.009l.014.009Zm-4.526-3.1v-.013l-.01.006.01.007Zm2.869-2.7-6.279,4.265c.118.163.245.323.378.479A9.7,9.7,0,0,0,18.1,36.128a11.857,11.857,0,0,0,1.056.637,14.434,14.434,0,0,0,2.872,1.16s-.064-8.038,0-8.3Zm-2.869,2.7-.01-.007.01-.006v.013Zm-.013-4.4v.007l.012-.007Zm-4.27-.005a5.923,5.923,0,0,0-.428,2.19,5.6,5.6,0,0,0,.084.957,6.275,6.275,0,0,0,.823,2.2s8.324-5.714,8.636-5.865H15.107c-.085.17-.162.344-.233.52Zm4.27.005h.012l-.012.007V27.93Zm4.525-3.085-.009.007h.019l-.011-.007Zm-3.012-2.054a13.046,13.046,0,0,0-2.583,1.342,10.657,10.657,0,0,0-.938.717A8.542,8.542,0,0,0,15.426,26.8s11.839-.043,12.216,0l-6.28-4.265c-.239.081-.475.166-.705.257Zm3.012,2.054.011.007h-.019l.009-.007Zm0,0" transform="translate(-14.446 -21.625)"/>
</svg>
