<svg xmlns="http://www.w3.org/2000/svg" xmlns:xlink="http://www.w3.org/1999/xlink" viewBox="0 0 206.633 178.901">
  <defs>
    <style>
      .cls-1 {
        fill: url(#linear-gradient);
      }

      .cls-2 {
        fill: #565a67;
      }
    </style>
    <linearGradient id="linear-gradient" x1="0.5" x2="0.5" y2="1" gradientUnits="objectBoundingBox">
      <stop offset="0" stop-color="#fff"/>
      <stop offset="1" stop-color="#fff" stop-opacity="0"/>
    </linearGradient>
  </defs>
  <g id="灯" transform="translate(-84.81 -0.5)">
    <path id="路径_361" data-name="路径 361" class="cls-1" d="M160.514,3825.359l-75.7,89.228H291.443l-77.663-89.228Z" transform="translate(0 -3735.186)"/>
    <path id="吊灯" class="cls-2" d="M229.942,110.705l-3.635,1.136a2.254,2.254,0,0,0-1.33,2.688,1.871,1.871,0,0,0,2.3,1.552l3.634-1.136a2.253,2.253,0,0,0,1.33-2.689,1.871,1.871,0,0,0-2.3-1.552Zm4.488,12.754-2.661,3.1a2.46,2.46,0,0,0,0,3.1,1.7,1.7,0,0,0,2.661,0l2.661-3.1a2.462,2.462,0,0,0,0-3.1,1.7,1.7,0,0,0-2.661,0Zm35.994-11.065-3.782-1.14a1.946,1.946,0,0,0-2.4,1.557,2.244,2.244,0,0,0,1.385,2.7l3.782,1.14a1.946,1.946,0,0,0,2.4-1.557,2.244,2.244,0,0,0-1.385-2.7ZM261.9,124.053a1.808,1.808,0,0,0-2.769,0,2.4,2.4,0,0,0,0,3.115l2.769,3.115a1.808,1.808,0,0,0,2.769,0,2.4,2.4,0,0,0,0-3.115l-2.769-3.115Zm-12.609.35a2.056,2.056,0,0,0-1.881,2.195v4.39a1.9,1.9,0,1,0,3.762,0V126.6a2.056,2.056,0,0,0-1.881-2.195Zm1.887-52.851c0-.023.006-.044.006-.067V18.422a1.884,1.884,0,1,0-3.762,0V71.406c-15.341.631-28.126,16.58-28.126,35.4v2.086h15.087c1.131,7.462,6.96,13.17,13.979,13.17s12.848-5.707,13.979-13.17h15.087v-2.086c0-18.051-11.757-33.467-26.251-35.257Zm-2.816,46.341c-5.025,0-9.238-3.851-10.332-9H258.7c-1.094,5.147-5.306,9-10.333,9Zm-25.431-13.17c.909-16.018,12.185-29.176,25.432-29.176S272.888,88.7,273.8,104.723Zm0,0" transform="translate(-61.299 -15.945)"/>
  </g>
</svg>
