<svg xmlns="http://www.w3.org/2000/svg" viewBox="0 0 23.26 23.26">
  <defs>
    <style>
      .cls-1 {
        fill: #fff;
      }
    </style>
  </defs>
  <g id="loading" transform="translate(0 -0.004)">
    <path id="路径_240" data-name="路径 240" class="cls-1" d="M772.164,907.49a.231.231,0,1,0,.231-.242.237.237,0,0,0-.231.242Z" transform="translate(-755.164 -886.308)"/>
    <path id="路径_241" data-name="路径 241" class="cls-1" d="M578.145,986.1a.238.238,0,0,1-.173-.075.262.262,0,0,1-.071-.181.238.238,0,1,1,.244.256" transform="translate(-565.178 -962.836)"/>
    <path id="路径_242" data-name="路径 242" class="cls-1" d="M364.513,971.721a.326.326,0,1,0,.326-.342.334.334,0,0,0-.326.342Z" transform="translate(-356.488 -948.96)"/>
    <path id="路径_243" data-name="路径 243" class="cls-1" d="M176.755,871.028a.4.4,0,1,1,.281-.118.376.376,0,0,1-.281.118" transform="translate(-172.478 -850.118)"/>
    <path id="路径_244" data-name="路径 244" class="cls-1" d="M47.35,700.389a.462.462,0,0,1-.337-.145.508.508,0,0,1-.139-.353.476.476,0,1,1,.95,0,.508.508,0,0,1-.138.353.462.462,0,0,1-.336.145" transform="translate(-45.842 -683.25)"/>
    <path id="路径_245" data-name="路径 245" class="cls-1" d="M924.752,426.152a1.539,1.539,0,1,1,1.467-1.537,1.506,1.506,0,0,1-1.467,1.537" transform="translate(-902.96 -413.313)"/>
    <path id="路径_246" data-name="路径 246" class="cls-1" d="M.557,490.87a.538.538,0,0,1-.4-.169A.592.592,0,0,1,0,490.286a.564.564,0,0,1,.557-.583.584.584,0,0,1,0,1.167" transform="translate(0 -478.401)"/>
    <path id="路径_247" data-name="路径 247" class="cls-1" d="M872.181,230.339a1.351,1.351,0,0,1-1.317-1.38,1.387,1.387,0,0,1,.38-.968,1.286,1.286,0,0,1,.924-.4,1.351,1.351,0,0,1,1.316,1.38,1.384,1.384,0,0,1-.377.972,1.257,1.257,0,0,1-.927.4" transform="translate(-851.692 -222.339)"/>
    <path id="路径_248" data-name="路径 248" class="cls-1" d="M44.424,283.2a.67.67,0,1,1,.638-.669.654.654,0,0,1-.638.669" transform="translate(-42.822 -275.359)"/>
    <path id="路径_249" data-name="路径 249" class="cls-1" d="M740.035,78.918a1.226,1.226,0,1,1,1.168-1.224,1.2,1.2,0,0,1-1.168,1.224" transform="translate(-722.601 -74.705)"/>
    <path id="路径_250" data-name="路径 250" class="cls-1" d="M169.2,113.866a.76.76,0,0,1-.7-.487.825.825,0,0,1,.156-.865.734.734,0,0,1,.826-.165.8.8,0,0,1,.465.734.763.763,0,0,1-.747.783" transform="translate(-164.735 -109.696)"/>
    <path id="路径_251" data-name="路径 251" class="cls-1" d="M554.244,2.135a1.051,1.051,0,0,1-1.018-1.067,1.019,1.019,0,1,1,2.036,0,1.041,1.041,0,0,1-1.018,1.067" transform="translate(-541.046)"/>
    <path id="路径_252" data-name="路径 252" class="cls-1" d="M351.8,14.771a.912.912,0,1,1,.869-.911.9.9,0,0,1-.869.911" transform="translate(-343.21 -12.65)"/>
  </g>
</svg>
