<svg xmlns="http://www.w3.org/2000/svg" xmlns:xlink="http://www.w3.org/1999/xlink" viewBox="0 0 346.908 625.577">
  <defs>
    <style>
      .cls-1 {
        fill: #626262;
      }

      .cls-1, .cls-2 {
        stroke: #707070;
      }

      .cls-2 {
        fill: #222;
      }

      .cls-3 {
        fill: #403d3d;
      }

      .cls-4 {
        fill: rgba(255,255,255,0.01);
      }

      .cls-5, .cls-7 {
        stroke: none;
      }

      .cls-6 {
        fill: none;
      }

      .cls-7 {
        fill: #0f0f0f;
      }

      .cls-8 {
        filter: url(#矩形_169);
      }
    </style>
    <filter id="矩形_169" x="0" y="0" width="346.908" height="625.577" filterUnits="userSpaceOnUse">
      <feOffset dy="3" input="SourceAlpha"/>
      <feGaussianBlur stdDeviation="3" result="blur"/>
      <feFlood flood-opacity="0.161"/>
      <feComposite operator="in" in2="blur"/>
      <feComposite in="SourceGraphic"/>
    </filter>
  </defs>
  <g id="组_381" data-name="组 381" transform="translate(-14 -25)">
    <path id="路径_870" data-name="路径 870" class="cls-1" d="M3142.106,13314.324s-2.224,27.908,9.15,28.117c3.63-.059,308.074.35,313.238.219,7.528.266,5.037-28.336,5.037-28.336Z" transform="translate(-3118.78 -12696)"/>
    <g class="cls-8" transform="matrix(1, 0, 0, 1, 14, 25)">
      <g id="矩形_169-2" data-name="矩形 169" class="cls-2" transform="translate(9 6)">
        <rect class="cls-5" width="328.908" height="607.577" rx="10"/>
        <rect class="cls-6" x="0.5" y="0.5" width="327.908" height="606.577" rx="9.5"/>
      </g>
    </g>
    <g id="路径_867" data-name="路径 867" class="cls-3" transform="translate(34.333 44.151)">
      <path class="cls-5" d="M 302.6113891601562 418.8488159179688 L 3.184982776641846 418.8488159179688 C 2.531561851501465 418.8488159179688 1.999982833862305 418.3263549804688 1.999982833862305 417.6842041015625 L 1.999982833862305 3.164671182632446 C 1.999982833862305 2.522460699081421 2.531561851501465 1.999986886978149 3.184982776641846 1.999986886978149 L 302.6113891601562 1.999986886978149 C 303.2648315429688 1.999986886978149 303.7964172363281 2.522460699081421 303.7964172363281 3.164671182632446 L 303.7964172363281 417.6842041015625 C 303.7964172363281 418.3263549804688 303.2648315429688 418.8488159179688 302.6113891601562 418.8488159179688 Z"/>
      <path class="cls-7" d="M 3.999969482421875 4.000030517578125 L 3.999969482421875 416.8487854003906 L 301.7963562011719 416.8487854003906 L 301.7963562011719 4.000030517578125 L 3.999969482421875 4.000030517578125 M 3.184967041015625 3.0517578125e-05 L 302.6114196777344 3.0517578125e-05 C 304.3704223632812 3.0517578125e-05 305.7963562011719 1.416839599609375 305.7963562011719 3.164642333984375 L 305.7963562011719 417.6841735839844 C 305.7963562011719 419.4319763183594 304.3704223632812 420.8487854003906 302.6114196777344 420.8487854003906 L 3.184967041015625 420.8487854003906 C 1.42596435546875 420.8487854003906 -3.0517578125e-05 419.4319763183594 -3.0517578125e-05 417.6841735839844 L -3.0517578125e-05 3.164642333984375 C -3.0517578125e-05 1.416839599609375 1.42596435546875 3.0517578125e-05 3.184967041015625 3.0517578125e-05 Z"/>
    </g>
    <path id="路径_871" data-name="路径 871" class="cls-4" d="M3452.891,12920.548,3153.974,13155h298.916Z" transform="translate(-3115 -12696)"/>
  </g>
</svg>
