<svg xmlns="http://www.w3.org/2000/svg" xmlns:xlink="http://www.w3.org/1999/xlink" width="363" height="508" viewBox="0 0 363 508">
    <defs>
        <filter id="a" width="138.9%" height="134%" x="-19.4%" y="-17%" filterUnits="objectBoundingBox">
            <feGaussianBlur in="SourceGraphic" stdDeviation="14.45"/>
        </filter>
        <rect id="b" width="223" height="263" rx="7"/>
        <linearGradient id="d" x1="32.544%" x2="25.59%" y1="0%" y2="72.877%">
            <stop offset="0%" stop-color="#E6E8EC"/>
            <stop offset="100%" stop-color="#F5F7FE"/>
        </linearGradient>
    </defs>
    <g fill="none" fill-rule="evenodd" transform="translate(-5 -30)">
        <path fill="#5A5E68" stroke="#383527" stroke-width="3" d="M40 107h297v307H40z"/>
        <path fill="#353535" stroke="#4B4F56" stroke-width="3" d="M67 113h241v282H67z"/>
        <path fill="#7C838D" stroke="#4B4F56" stroke-width="3" d="M16.783 90.38l341.777-3.427c.781 2.558 1.003 4.148.665 4.77-.339.622-4.507 7.613-12.506 20.972H33.579a2314.53 2314.53 0 0 0-15.814-18.03c-1.574-2.808-1.901-4.236-.982-4.285z"/>
        <rect width="345" height="63" x="15" y="32" fill="#5B5D69" stroke="#4B4F56" stroke-width="3" rx="6"/>
        <rect width="223" height="255" x="74" y="127" fill="#F9F9F9" filter="url(#a)" opacity=".832" rx="39"/>
        <g transform="translate(75 122)">
            <mask id="c" fill="#fff">
                <use xlink:href="#b"/>
            </mask>
            <use fill="#FFF" xlink:href="#b"/>
            <g stroke="#979797" mask="url(#c)" opacity=".042">
                <path d="M-8 9h233.866M-8 16h233.866M-8 2h233.866M-8 24h233.866M-8 31h233.866M-8 38h233.866M-8 96h233.866M-8 103h233.866M-8 88h233.866M-8 110h233.866M-8 117h233.866M-8 124h233.866M-8 52h233.866M-8 60h233.866M-8 45h233.866M-8 67h233.866M-8 74h233.866M-8 81h233.866M-8 139h233.866M-8 146h233.866M-8 131h233.866M-8 153h233.866M-8 160h233.866M-8 167h233.866M-8 225h233.866M-8 232h233.866M-8 218h233.866M-8 239h233.866M-8 247h233.866M-8 254h233.866M-8 261h233.866M-8 182h233.866M-8 189h233.866M-8 175h233.866M-8 196h233.866M-8 203h233.866M-8 211h233.866"/>
                <g>
                    <path d="M-8 5h233.866M-8 12h233.866M-8-2h233.866M-8 20h233.866M-8 27h233.866M-8 34h233.866M-8 92h233.866M-8 99h233.866M-8 84h233.866M-8 106h233.866M-8 113h233.866M-8 120h233.866M-8 48h233.866M-8 56h233.866M-8 41h233.866M-8 63h233.866M-8 70h233.866M-8 77h233.866M-8 135h233.866M-8 142h233.866M-8 127h233.866M-8 149h233.866M-8 156h233.866M-8 163h233.866M-8 221h233.866M-8 228h233.866M-8 214h233.866M-8 235h233.866M-8 243h233.866M-8 250h233.866M-8 257h233.866M-8 178h233.866M-8 185h233.866M-8 171h233.866M-8 192h233.866M-8 199h233.866M-8 207h233.866"/>
                </g>
            </g>
        </g>
        <path fill="url(#d)" d="M82 122h208.957a7 7 0 0 1 7 7.035c-.045 8.905-.03 15.409.043 19.512-7.745 5.73-61.363 18.98-122.168 72.094C134.346 261.279 100.735 305.8 75 354.207V129a7 7 0 0 1 7-7z" opacity=".264"/>
        <path fill="#5D5F6E" stroke="#4B4F56" stroke-width="3" d="M9 491l17.82 53.531 319.625 5.668c8.493-26.674 14.758-46.878 18.797-60.612.441-1.665.441-3.935 0-6.812-116.376 1.875-213.784 2.812-292.223 2.812-30.705 0-34.166-4.607-47.372-4.054C11.96 482.106 6.411 485.262 9 491z"/>
        <path fill="#6C7081" d="M10.757 491.6c2.314.537 5.278 1.148 8.892 1.833.479 2.366 13.482 40.531 18.001 50.396 4.887 3.278 1.369 2.015-10.555-3.79L10.757 491.6z"/>
        <path fill="#525461" d="M362.892 492.19c-2.145.814-5.026 1.564-8.64 2.249-.479 2.366-11.957 38.592-16.476 48.457-4.887 3.278-1.369 2.015 10.555-3.79l14.561-46.916z"/>
        <path fill="#7C828F" stroke="#4B4F56" stroke-width="3" d="M38.745 412.565L7.464 479.91c-2.887 9.376 3.644 13.986 19.592 13.83 23.931-.136 130.496-.136 319.695 0 13.605.622 20.036-3.358 19.293-11.943l-30.167-69.232H38.745z"/>
        <path fill="#7C818F" stroke="#4B4F56" stroke-width="3" d="M38 113h12v300.729H38zM325 113h12v300.701h-12z"/>
        <path fill="#898F9F" d="M48.083 415.132L20.05 479.338c-1.794 2.96-2.382 7.013-1.762 12.16-3.36-.295-6.27-.75-9.334-3.862-2.571-6.665.515-7.598 3.801-16.426 5.706-11.235 14.578-29.928 26.617-56.078h8.711z"/>
        <path fill="#6C707A" d="M326.99 415.203l27.025 65.228c1.191 2.48 1.477 6.292.857 11.44 3.36-.295 5.86-1.183 8.922-4.295 2.572-6.665.009-6.606-3.278-15.434-5.238-11.499-13.613-30.479-25.125-56.939h-8.4z"/>
        <path fill="#5A5E68" d="M53 114h12.904v297.012L53 413z"/>
        <path fill="#666A74" stroke="#4B4F56" stroke-width="3" d="M51.29 413.72l14.731-18.394h244.442l15.691 18.395z"/>
    </g>
</svg>
