<svg xmlns="http://www.w3.org/2000/svg" viewBox="0 0 329.3 616.162">
  <defs>
    <style>
      .cls-1 {
        fill: #626262;
      }

      .cls-1, .cls-2 {
        stroke: #707070;
      }

      .cls-2 {
        fill: #222;
      }

      .cls-3 {
        fill: #403d3d;
      }

      .cls-4 {
        fill: #0f0f0f;
      }

      .cls-5 {
        stroke: none;
      }

      .cls-6 {
        fill: none;
      }
    </style>
  </defs>
  <g id="machinev2" transform="translate(-22.608 -31)">
    <path id="路径_870" data-name="路径 870" class="cls-1" d="M3142.106,13314.324s-2.224,27.908,9.15,28.117c3.63-.059,308.074.35,313.238.219,7.528.266,5.037-28.336,5.037-28.336Z" transform="translate(-3118.78 -12696)"/>
    <g id="组_25" data-name="组 25" transform="translate(14 25)">
      <g id="矩形_169" data-name="矩形 169" class="cls-2" transform="translate(9 6)">
        <rect class="cls-5" width="328.908" height="607.577" rx="10"/>
        <rect class="cls-6" x="0.5" y="0.5" width="327.908" height="606.577" rx="9.5"/>
      </g>
    </g>
    <g id="路径_867" data-name="路径 867" transform="translate(34.333 44.151)">
      <path id="路径_106" data-name="路径 106" class="cls-3" d="M302.611,418.849H3.185A1.176,1.176,0,0,1,2,417.684V3.165A1.176,1.176,0,0,1,3.185,2H302.611A1.176,1.176,0,0,1,303.8,3.165v414.52A1.176,1.176,0,0,1,302.611,418.849Z"/>
      <path id="路径_107" data-name="路径 107" class="cls-4" d="M4,4V416.849H301.8V4H4M3.185,0H302.611A3.175,3.175,0,0,1,305.8,3.165v414.52a3.175,3.175,0,0,1-3.185,3.165H3.185A3.175,3.175,0,0,1,0,417.684V3.165A3.175,3.175,0,0,1,3.185,0Z"/>
    </g>
  </g>
</svg>
