<?xml version="1.0" standalone="no"?><!DOCTYPE svg PUBLIC "-//W3C//DTD SVG 1.1//EN" "http://www.w3.org/Graphics/SVG/1.1/DTD/svg11.dtd"><svg t="1536292424802" class="icon" style="" viewBox="0 0 1024 1024" version="1.1" xmlns="http://www.w3.org/2000/svg" p-id="3960" xmlns:xlink="http://www.w3.org/1999/xlink" width="512" height="512"><defs><style type="text/css"></style></defs><path d="M514.048 28.672c-269.504 0-488 218.496-488 488 0 269.504 218.496 488 488 488 269.504 0 488-218.496 488-488C1002.048 247.168 783.552 28.672 514.048 28.672zM578.176 844.096 453.952 844.096l0-124.224 124.224 0L578.176 844.096zM723.52 453.248c-15.488 24.448-48.704 57.728-99.392 99.968-26.24 21.76-42.56 39.232-48.896 52.544-6.272 13.248-9.152 36.992-8.64 71.168L453.952 676.928c-0.32-16.256-0.448-26.112-0.448-29.632 0-36.544 6.016-66.624 18.112-90.24 12.032-23.552 36.224-50.048 72.512-79.552 36.224-29.504 57.92-48.832 65.024-57.92 11.008-14.464 16.384-30.4 16.384-47.744 0-24.192-9.536-44.864-28.864-62.144C577.28 292.48 551.296 283.904 518.528 283.904c-31.552 0-57.92 9.024-79.168 26.944-21.184 17.984-35.84 45.376-43.776 82.304L281.472 378.944c3.264-52.736 25.664-97.536 67.456-134.4 41.664-36.864 96.448-55.296 164.224-55.296 71.296 0 128.064 18.688 170.24 55.936 42.176 37.312 63.232 80.704 63.232 130.24C746.624 402.816 738.88 428.736 723.52 453.248z" p-id="3961" fill="#ffffff"></path></svg>