<svg xmlns="http://www.w3.org/2000/svg" width="32" height="32" viewBox="0 0 32 32">
    <g fill="none" fill-rule="nonzero">
        <path fill="#767882" d="M2.066 6.03A9.403 9.403 0 0 0 1 10.375c0 5.17 4.206 9.375 9.375 9.375.903 0 1.777-.129 2.604-.368l4.898 4.897A6.57 6.57 0 0 0 24.437 31 6.57 6.57 0 0 0 31 24.438a6.57 6.57 0 0 0-6.721-6.56L19.38 12.98c.24-.828.369-1.702.369-2.606C19.75 5.205 15.544 1 10.375 1a9.405 9.405 0 0 0-4.33 1.058.939.939 0 0 0-.341 1.36.937.937 0 0 0 .167.226l4.807 4.805-2.227 2.226-4.807-4.804a.94.94 0 0 0-.126-.106.94.94 0 0 0-1.452.265zM24.5 28a3.5 3.5 0 1 1 0-7 3.5 3.5 0 0 1 0 7z"/>
        <path d="M28.5 27c1.935 0 3.5 1.565 3.5 3.5S30.435 34 28.5 34a3.498 3.498 0 0 1-3.5-3.5c0-1.935 1.565-3.5 3.5-3.5zm0 4.667a1.167 1.167 0 1 0-.002-2.335 1.167 1.167 0 0 0 .002 2.335zm-6.503-3.17l.716.191c-.145.545-.213 1.002-.213 1.437a5.631 5.631 0 0 0 5.625 5.625 5.631 5.631 0 0 0 5.625-5.625 5.631 5.631 0 0 0-5.625-5.625c-.434 0-.891.068-1.438.213l-.19-.717-5.369-5.367a11.332 11.332 0 0 1-4.5 4.5l5.369 5.368z"/>
    </g>
</svg>
