<svg xmlns="http://www.w3.org/2000/svg" viewBox="0 0 20.71 17">
  <defs>
    <style>
      .cls-1 {
        fill: #fff;
      }
    </style>
  </defs>
  <path id="分享" class="cls-1" d="M16.827,10.621A4.207,4.207,0,0,0,13.721,11.9l-6.1-2.515a2.662,2.662,0,0,0-.029-1.83l6.079-2.505a4.187,4.187,0,0,0,3.158,1.334c2.145,0,3.883-1.428,3.883-3.19S18.971,0,16.827,0s-3.883,1.428-3.883,3.19a2.674,2.674,0,0,0,.025.36L6.557,6.193a4.352,4.352,0,0,0-2.673-.876C1.739,5.316,0,6.744,0,8.506S1.739,11.7,3.883,11.7a4.33,4.33,0,0,0,2.748-.937l6.348,2.616a2.646,2.646,0,0,0-.036.435c0,1.762,1.738,3.19,3.883,3.19s3.883-1.428,3.883-3.19S18.971,10.621,16.827,10.621Zm0,0"/>
</svg>
