<svg xmlns="http://www.w3.org/2000/svg" viewBox="0 0 1007.874 1015.937">
  <defs>
    <style>
      .cls-1 {
        fill: #fff;
      }
    </style>
  </defs>
  <g id="哭脸" transform="translate(-8.063)">
    <path id="路径_900" data-name="路径 900" class="cls-1" d="M362.835,20.157c0,19.351-1.613,20.157-52.409,20.157s-52.409.806-52.409,20.157c0,16.126-4.031,20.157-20.157,20.157-14.513,0-20.157,4.031-20.157,16.126s-5.644,16.126-20.157,16.126-20.157,4.031-20.157,16.126c0,10.482-5.644,16.126-16.126,16.126s-16.126,5.644-16.126,16.126-5.644,16.126-16.126,16.126c-12.094,0-16.126,5.644-16.126,20.157S108.85,217.7,96.756,217.7c-13.707,0-16.126,5.644-16.126,32.252S78.211,282.2,64.5,282.2s-16.126,5.644-16.126,36.283c0,33.058-1.613,36.283-20.157,36.283H8.063V693.417H28.22c18.545,0,20.157,3.225,20.157,36.283,0,30.639,2.419,36.283,16.126,36.283,12.094,0,16.126,5.644,16.126,20.157S84.661,806.3,96.756,806.3c13.707,0,16.126,5.644,16.126,32.252S115.3,870.8,129.008,870.8c10.482,0,16.126,5.644,16.126,16.126,0,13.707,5.644,16.126,36.283,16.126s36.283,2.419,36.283,16.126c0,12.094,5.644,16.126,20.157,16.126,16.126,0,20.157,4.031,20.157,20.157,0,19.351,1.613,20.157,52.409,20.157s52.409.806,52.409,20.157v20.157H661.165V995.779c0-19.351,1.613-20.157,52.409-20.157s52.409-.806,52.409-20.157c0-16.126,4.031-20.157,20.157-20.157,14.513,0,20.157-4.031,20.157-16.126,0-13.707,5.644-16.126,36.283-16.126s36.283-2.419,36.283-16.126c0-10.482,5.644-16.126,16.126-16.126,13.707,0,16.126-5.644,16.126-32.252,0-29.027,1.613-32.252,20.964-32.252,18.545,0,20.964-2.419,17.739-20.157-3.225-15.32-.806-20.157,10.482-20.157,12.9,0,15.32-6.45,15.32-36.283,0-33.058,1.613-36.283,20.157-36.283h20.157l-1.613-167.71c-2.419-166.1-2.419-166.9-20.157-169.323-16.126-2.419-18.545-7.257-18.545-38.7,0-29.833-2.419-35.477-16.126-35.477s-16.126-5.644-16.126-32.252S940.951,217.7,927.244,217.7c-12.094,0-16.126-5.644-16.126-20.157s-4.031-20.157-16.126-20.157c-10.482,0-16.126-5.644-16.126-16.126s-5.644-16.126-16.126-16.126-16.126-5.644-16.126-16.126c0-12.094-5.644-16.126-20.157-16.126S806.3,108.85,806.3,96.756,800.655,80.63,786.142,80.63c-16.126,0-20.157-4.031-20.157-20.157,0-19.351-1.613-20.157-52.409-20.157s-52.41-.806-52.41-20.158V0H362.835ZM630.526,49.991c2.419,16.932,7.257,18.545,52.409,20.964,44.346,2.419,49.991,4.031,54.022,21.77,3.225,12.9,11.288,20.157,20.964,20.157,8.063,0,17.739,7.257,20.157,16.126s12.094,16.126,20.964,16.126c9.676,0,15.32,5.644,15.32,16.126,0,9.676,5.644,16.126,12.9,16.126s14.513,7.257,16.932,16.126,11.288,16.126,19.351,16.126c11.288,0,15.32,5.644,15.32,20.157s4.031,20.157,16.126,20.157c13.707,0,16.126,5.644,16.126,32.252s2.419,32.252,16.126,32.252S943.37,320.1,943.37,350.74c0,33.058,1.613,36.283,20.157,36.283h20.157V661.165H963.528c-16.932,0-20.157,4.031-20.157,24.189,0,18.545-3.225,24.189-16.126,24.189-13.707,0-16.126,5.644-16.126,32.252s-2.419,32.252-16.126,32.252-16.126,5.644-16.126,32.252c0,29.027-1.613,32.252-20.157,32.252-14.513,0-20.157,4.031-20.157,16.126,0,13.707-5.644,16.126-32.252,16.126s-32.252,2.419-32.252,16.126c0,10.482-5.644,16.126-16.126,16.126s-17.739,7.257-20.964,20.157c-4.838,18.545-8.063,20.157-56.441,20.157-49.991,0-51.6.806-51.6,20.157v20.157H396.7l-4.838-20.157c-4.838-18.545-8.869-20.157-52.409-20.157s-47.572-1.613-52.409-20.157c-3.225-12.9-10.482-20.157-20.964-20.157s-16.126-5.644-16.126-16.126c0-13.707-5.644-16.126-32.252-16.126s-32.252-2.419-32.252-16.126c0-12.094-5.644-16.126-20.157-16.126-17.739,0-20.157-3.225-20.157-32.252,0-26.608-2.419-32.252-16.126-32.252S112.882,768.4,112.882,741.8s-2.419-32.252-16.126-32.252c-12.9,0-16.126-5.644-16.126-29.027,0-26.608-1.613-29.027-20.157-25.8l-20.157,4.031V387.024H60.472c18.545,0,20.157-3.225,20.157-36.283,0-30.639,2.419-36.283,16.126-36.283s16.126-5.644,16.126-32.252,2.419-32.252,16.126-32.252c12.094,0,16.126-5.644,16.126-20.157s4.031-20.157,16.126-20.157c9.676,0,16.126-5.644,16.126-12.9s7.257-14.513,16.126-16.932,16.126-11.288,16.126-19.351c0-9.676,5.644-15.32,15.32-15.32,8.869,0,18.545-7.257,20.964-16.126s12.094-16.126,20.157-16.126c10.482,0,17.739-7.257,20.964-20.157,4.838-18.545,8.869-20.157,52.409-20.157s47.572-1.613,52.409-20.157L396.7,32.252H512c113.688,0,116.107,0,118.526,17.739Z"/>
    <path id="路径_901" data-name="路径 901" class="cls-1" d="M330.583,297.524c0,20.964-3.225,25-20.157,25H290.268V491.843h20.157c14.513,0,20.157,4.031,20.157,16.126,0,12.9,5.644,16.126,28.22,16.126s28.22-3.225,28.22-16.126c0-10.482,5.644-16.126,16.126-16.126,15.32,0,16.126-5.644,16.126-84.661,0-78.211-.806-84.661-15.32-84.661-11.288,0-16.932-6.45-18.545-22.576-1.613-17.739-6.45-22.576-28.22-24.189-25-2.419-26.608-.806-26.608,21.77Zm306.394,0c0,20.964-3.225,25-20.157,25H596.661V491.843h20.157c14.513,0,20.157,4.031,20.157,16.126,0,12.9,5.644,16.126,28.22,16.126s28.22-3.225,28.22-16.126c0-10.482,5.644-16.126,16.126-16.126,15.32,0,16.126-5.644,16.126-84.661,0-78.211-.806-84.661-15.32-84.661-11.288,0-16.932-6.45-18.545-22.576-1.613-17.739-6.45-22.576-28.22-24.189-25-2.419-26.608-.806-26.608,21.77ZM459.591,612.787c0,10.482-5.644,16.126-16.126,16.126-8.869,0-16.126,5.644-16.126,12.094S420.082,653.1,411.213,653.1s-16.126,5.644-16.126,12.094-7.257,12.094-16.126,12.094c-10.482,0-16.126,5.644-16.126,16.126,0,12.094,5.644,16.126,20.157,16.126,12.9,0,20.157-4.838,20.157-12.094,0-6.45,7.257-12.094,16.126-12.094S435.4,679.71,435.4,673.26s7.257-12.094,16.126-12.094c10.482,0,16.126-5.644,16.126-16.126,0-14.513,5.644-16.126,45.153-16.126,37.9,0,45.959,2.419,49.184,16.126,2.419,10.482,11.288,16.126,23.383,16.126S604.724,666,604.724,673.26c0,6.45,7.257,12.094,16.126,12.094s16.126,5.644,16.126,12.094c0,7.257,7.257,12.094,20.157,12.094,14.513,0,20.157-4.031,20.157-16.126,0-10.482-5.644-16.126-16.126-16.126-8.869,0-16.126-5.644-16.126-12.094,0-7.257-7.257-12.094-19.351-12.094-10.482,0-20.964-5.644-24.189-12.094-2.419-6.45-12.094-12.094-20.964-12.094-10.482,0-16.126-5.644-16.126-16.126,0-14.513-5.644-16.126-52.409-16.126s-52.409,1.613-52.409,16.126Z"/>
  </g>
</svg>
